<svg width="461" height="119" viewBox="0 0 461 119" fill="none" xmlns="http://www.w3.org/2000/svg">
<g filter="url(#filter0_in_1_10)">
<rect width="461" height="119" rx="59.5" fill="#E4AD88"/>
<rect x="2" y="2" width="457" height="115" rx="57.5" stroke="#87453E" stroke-width="4"/>
</g>
<path d="M43 63.1497H65.0513" stroke="#87453E" stroke-width="8" stroke-linecap="round"/>
<path d="M65.0513 63.1497L81.5897 26.3583L98.1282 99.9412L114.667 19L131.205 99.9412L147.744 63.1497H191.846" stroke="#87453E" stroke-width="8" stroke-linecap="round" stroke-linejoin="round"/>
<path d="M191.846 63.1497H213.897" stroke="#87453E" stroke-width="8" stroke-linecap="round"/>
<path d="M202.872 49.9048L215 63.1497L202.872 76.3947" stroke="#87453E" stroke-width="8" stroke-linecap="round" stroke-linejoin="round"/>
<path d="M246.84 81.192C246.456 81.192 246.179 81.0427 246.008 80.744C245.837 80.4453 245.752 80.1253 245.752 79.784C245.795 79.0587 245.965 78.6533 246.264 78.568C246.563 78.4827 246.925 78.44 247.352 78.44C248.717 78.44 249.677 78.2053 250.232 77.736C250.787 77.224 251.128 76.6053 251.256 75.88C251.427 75.112 251.512 74.3227 251.512 73.512V48.104C251.512 47.2933 251.427 46.5253 251.256 45.8C251.128 45.032 250.787 44.4133 250.232 43.944C249.677 43.432 248.717 43.176 247.352 43.176C246.925 43.176 246.563 43.1333 246.264 43.048C245.965 42.9627 245.795 42.5573 245.752 41.832C245.752 41.4907 245.837 41.1707 246.008 40.872C246.179 40.5733 246.456 40.424 246.84 40.424C248.205 40.4667 249.485 40.5093 250.68 40.552C251.917 40.5947 253.176 40.616 254.456 40.616H272.952C273.421 40.616 273.805 40.7227 274.104 40.936C274.445 41.1493 274.616 41.5547 274.616 42.152L274.808 51.112C274.808 51.5387 274.595 51.8587 274.168 52.072C273.784 52.2853 273.421 52.392 273.08 52.392C272.611 52.392 272.163 52.3067 271.736 52.136C271.352 51.9227 271.117 51.624 271.032 51.24C270.776 49.32 270.435 47.784 270.008 46.632C269.624 45.4373 269.027 44.584 268.216 44.072C267.448 43.5173 266.317 43.2187 264.824 43.176H257.848V59.816H269.304C269.645 59.8587 269.901 60.0293 270.072 60.328C270.243 60.6267 270.328 60.9467 270.328 61.288C270.328 61.5867 270.243 61.8853 270.072 62.184C269.901 62.44 269.645 62.568 269.304 62.568H257.848V73.512C257.891 74.3227 257.976 75.112 258.104 75.88C258.232 76.6053 258.573 77.224 259.128 77.736C259.725 78.2053 260.685 78.44 262.008 78.44C262.435 78.44 262.797 78.4827 263.096 78.568C263.395 78.6533 263.565 79.0587 263.608 79.784C263.608 80.1253 263.523 80.4453 263.352 80.744C263.181 81.0427 262.883 81.192 262.456 81.192C259.725 81.064 257.08 81 254.52 81C253.24 81 251.981 81 250.744 81C249.507 81.0427 248.205 81.1067 246.84 81.192ZM274.447 81.192C274.02 81.192 273.721 81.0427 273.55 80.744C273.38 80.4453 273.294 80.1253 273.294 79.784C273.337 79.0587 273.508 78.6533 273.806 78.568C274.105 78.4827 274.468 78.44 274.895 78.44C276.047 78.44 276.921 78.2053 277.519 77.736C278.116 77.2667 278.585 76.648 278.927 75.88C279.311 75.112 279.673 74.3227 280.015 73.512L291.215 47.016C291.641 45.992 291.727 45.224 291.471 44.712C291.215 44.1573 290.788 43.7733 290.191 43.56C289.593 43.304 288.932 43.112 288.207 42.984C287.567 42.856 287.14 42.7493 286.927 42.664C286.713 42.536 286.607 42.152 286.607 41.512C286.607 40.7867 286.863 40.4027 287.375 40.36C287.887 40.2747 288.484 40.232 289.167 40.232C290.916 40.232 292.409 40.4027 293.647 40.744C294.884 41.0853 295.951 41.7467 296.847 42.728C297.743 43.6667 298.575 45.096 299.343 47.016L310.095 73.512C310.393 74.2373 310.713 74.984 311.055 75.752C311.396 76.52 311.844 77.16 312.399 77.672C312.996 78.1413 313.743 78.3973 314.639 78.44C315.108 78.44 315.471 78.4827 315.727 78.568C316.025 78.6533 316.196 79.0587 316.239 79.784C316.239 80.1253 316.132 80.4453 315.919 80.744C315.748 81.0427 315.471 81.192 315.087 81.192C313.721 81.1067 312.527 81.0427 311.503 81C310.479 81 309.327 81 308.047 81C305.529 81 302.884 81.064 300.111 81.192C299.684 81.192 299.385 81.0427 299.215 80.744C299.044 80.4453 298.959 80.1253 298.959 79.784C299.001 79.0587 299.172 78.6533 299.471 78.568C299.769 78.4827 300.132 78.44 300.559 78.44C302.649 78.44 303.78 78.056 303.951 77.288C304.164 76.52 303.972 75.2613 303.375 73.512L301.199 68.2H285.391C284.751 69.8213 284.281 70.9947 283.983 71.72C283.727 72.4453 283.556 72.9147 283.47 73.128C283.428 73.3413 283.385 73.4693 283.343 73.512C282.873 74.9627 282.617 76.0507 282.575 76.776C282.575 77.4587 282.916 77.9067 283.599 78.12C284.324 78.3333 285.519 78.44 287.183 78.44C287.652 78.44 288.015 78.4827 288.271 78.568C288.569 78.6533 288.74 79.0587 288.783 79.784C288.783 80.1253 288.676 80.4453 288.463 80.744C288.292 81.0427 288.015 81.192 287.631 81.192C286.265 81.1067 285.071 81.0427 284.047 81C283.065 81 281.935 81 280.655 81C279.801 81 279.076 81 278.479 81C277.924 81.0427 277.348 81.064 276.751 81.064C276.153 81.1067 275.385 81.1493 274.447 81.192ZM286.607 65.448H300.047L293.583 49H293.391L286.607 65.448ZM337.662 82.28C334.078 82.28 330.793 81.4267 327.806 79.72C324.819 78.0133 322.409 75.5813 320.574 72.424C318.782 69.2667 317.886 65.4907 317.886 61.096C317.886 56.744 318.739 52.9467 320.446 49.704C322.153 46.4187 324.563 43.88 327.678 42.088C330.835 40.2533 334.547 39.336 338.814 39.336C340.35 39.336 341.929 39.4853 343.55 39.784C345.214 40.0827 346.75 40.5947 348.158 41.32C349.566 42.0027 350.697 42.92 351.55 44.072C352.446 45.224 352.894 46.6533 352.894 48.36C352.937 50.1947 352.382 51.816 351.23 53.224C350.078 54.5893 348.457 55.272 346.366 55.272C345.086 55.272 344.169 54.9733 343.614 54.376C343.102 53.736 342.867 53.2667 342.91 52.968C342.91 52.84 343.166 52.6267 343.678 52.328C344.233 51.9867 344.766 51.496 345.278 50.856C345.833 50.1733 346.11 49.2773 346.11 48.168C346.11 46.248 345.47 44.7333 344.19 43.624C342.91 42.472 341.097 41.896 338.75 41.896C336.19 41.896 333.886 42.6213 331.838 44.072C329.833 45.5227 328.254 47.656 327.102 50.472C325.95 53.2453 325.374 56.6587 325.374 60.712C325.374 64.1253 325.971 67.24 327.166 70.056C328.403 72.8293 330.11 75.048 332.286 76.712C334.505 78.3333 337.065 79.144 339.966 79.144C342.27 79.144 344.233 78.6747 345.854 77.736C347.518 76.7547 349.011 75.1973 350.334 73.064C350.718 72.3387 351.401 72.2747 352.382 72.872C352.766 73.128 353.065 73.448 353.278 73.832C353.491 74.1733 353.449 74.536 353.15 74.92C351.529 76.968 349.993 78.5253 348.542 79.592C347.091 80.616 345.513 81.32 343.806 81.704C342.099 82.088 340.051 82.28 337.662 82.28ZM359.281 81.192C358.854 81.192 358.555 81.0427 358.385 80.744C358.214 80.4453 358.129 80.1253 358.129 79.784C358.171 79.0587 358.342 78.6533 358.641 78.568C358.939 78.4827 359.302 78.44 359.729 78.44C361.094 78.44 362.033 78.2053 362.545 77.736C363.099 77.224 363.441 76.6053 363.569 75.88C363.697 75.112 363.76 74.3227 363.76 73.512L363.889 48.104C363.889 46.0987 363.547 44.8187 362.865 44.264C362.182 43.7093 361.094 43.2827 359.601 42.984C358.961 42.856 358.534 42.7493 358.321 42.664C358.107 42.536 358.001 42.152 358.001 41.512C358.001 40.7867 358.257 40.4027 358.769 40.36C359.281 40.2747 359.878 40.232 360.561 40.232C362.95 40.232 364.87 40.424 366.321 40.808C367.814 41.192 369.115 41.8747 370.225 42.856C371.377 43.8373 372.614 45.224 373.937 47.016L391.472 70.056H391.665L391.537 48.104C391.537 47.2933 391.473 46.5253 391.345 45.8C391.217 45.032 390.875 44.4133 390.321 43.944C389.809 43.432 388.87 43.176 387.505 43.176C387.078 43.176 386.715 43.1333 386.417 43.048C386.118 42.9627 385.926 42.5573 385.841 41.832C385.841 41.4907 385.926 41.1707 386.097 40.872C386.31 40.5733 386.609 40.424 386.993 40.424C387.931 40.4667 388.678 40.5093 389.233 40.552C389.83 40.552 390.406 40.5733 390.961 40.616C391.558 40.616 392.283 40.616 393.137 40.616C393.99 40.616 394.694 40.616 395.249 40.616C395.803 40.5733 396.358 40.552 396.913 40.552C397.51 40.5093 398.257 40.4667 399.153 40.424C399.579 40.424 399.878 40.5733 400.049 40.872C400.219 41.1707 400.305 41.4907 400.305 41.832C400.262 42.5573 400.091 42.9627 399.793 43.048C399.537 43.1333 399.174 43.176 398.705 43.176C397.382 43.176 396.443 43.432 395.889 43.944C395.334 44.4133 394.993 45.032 394.865 45.8C394.779 46.5253 394.715 47.2933 394.673 48.104L394.545 80.36C394.502 80.7013 394.289 80.9147 393.905 81C393.563 81.128 393.243 81.192 392.944 81.192C392.134 81.192 391.515 80.9147 391.089 80.36L366.961 48.104H366.769L366.897 73.512C366.939 74.3227 367.003 75.112 367.089 75.88C367.217 76.6053 367.558 77.224 368.113 77.736C368.667 78.2053 369.606 78.44 370.929 78.44C371.398 78.44 371.782 78.4827 372.081 78.568C372.379 78.6533 372.55 79.0587 372.593 79.784C372.593 80.1253 372.486 80.4453 372.273 80.744C372.102 81.0427 371.825 81.192 371.441 81.192C370.545 81.1493 369.777 81.1067 369.137 81.064C368.539 81.064 367.942 81.0427 367.345 81C366.79 81 366.086 81 365.233 81C364.379 81 363.675 81 363.121 81C362.609 81.0427 362.075 81.064 361.521 81.064C360.966 81.1067 360.219 81.1493 359.281 81.192Z" fill="#87453E"/>
<defs>
<filter id="filter0_in_1_10" x="0" y="0" width="461" height="123" filterUnits="userSpaceOnUse" color-interpolation-filters="sRGB">
<feFlood flood-opacity="0" result="BackgroundImageFix"/>
<feBlend mode="normal" in="SourceGraphic" in2="BackgroundImageFix" result="shape"/>
<feColorMatrix in="SourceAlpha" type="matrix" values="0 0 0 0 0 0 0 0 0 0 0 0 0 0 0 0 0 0 127 0" result="hardAlpha"/>
<feOffset dy="4"/>
<feGaussianBlur stdDeviation="2"/>
<feComposite in2="hardAlpha" operator="arithmetic" k2="-1" k3="1"/>
<feColorMatrix type="matrix" values="0 0 0 0 0 0 0 0 0 0 0 0 0 0 0 0 0 0 0.25 0"/>
<feBlend mode="normal" in2="shape" result="effect1_innerShadow_1_10"/>
<feTurbulence type="fractalNoise" baseFrequency="2 2" stitchTiles="stitch" numOctaves="3" result="noise" seed="997" />
<feColorMatrix in="noise" type="luminanceToAlpha" result="alphaNoise" />
<feComponentTransfer in="alphaNoise" result="coloredNoise1">
<feFuncA type="discrete" tableValues="0 0 0 0 0 0 0 0 0 0 0 0 0 0 1 1 1 1 1 1 1 1 1 1 1 1 1 1 1 1 1 1 1 1 1 1 1 0 0 0 0 0 0 0 0 0 0 0 0 0 0 0 0 0 0 0 0 0 0 0 0 0 0 0 0 0 0 0 0 0 0 0 0 0 0 0 0 0 0 0 0 0 0 0 0 0 0 0 0 0 0 0 0 0 0 0 0 0 0 0 "/>
</feComponentTransfer>
<feComposite operator="in" in2="effect1_innerShadow_1_10" in="coloredNoise1" result="noise1Clipped" />
<feFlood flood-color="rgba(0, 0, 0, 0.25)" result="color1Flood" />
<feComposite operator="in" in2="noise1Clipped" in="color1Flood" result="color1" />
<feMerge result="effect2_noise_1_10">
<feMergeNode in="effect1_innerShadow_1_10" />
<feMergeNode in="color1" />
</feMerge>
</filter>
</defs>
</svg>
